<?xml version="1.0" encoding="iso-8859-1"?>
<!-- Generator: Adobe Illustrator 19.0.0, SVG Export Plug-In . SVG Version: 6.00 Build 0)  -->
<svg version="1.1" id="Capa_1" xmlns="http://www.w3.org/2000/svg" xmlns:xlink="http://www.w3.org/1999/xlink" x="0px" y="0px"
	 viewBox="0 0 512 512" style="enable-background:new 0 0 512 512;" xml:space="preserve">
<circle style="fill:#005C83;" cx="256" cy="256" r="256"/>
<path style="fill:#00263F;" d="M512,256c0-8.435-0.42-16.771-1.217-24.996L402.961,123.182l-41.127,30.819L266,58.167l-20,59
	l60.75,60.75l-92.417,30.417l-5.262-13.405l-44.17-44.17l-14.143,14.142l58.503,58.503l-21.012,93.679L117.167,246l-59,20
	l90.917,90.917l-25.902,46.044l107.823,107.823C239.229,511.58,247.565,512,256,512C397.385,512,512,397.385,512,256z"/>
<g>
	<circle style="fill:#FFDC00;" cx="256" cy="256" r="114.83"/>
	<rect x="246" y="58.17" style="fill:#FFDC00;" width="20" height="59"/>
	<rect x="246" y="394.83" style="fill:#FFDC00;" width="20" height="59"/>
</g>
<g>
	<path style="fill:#FFC000;" d="M256,141.167c-0.111,0-0.222,0.004-0.333,0.004v229.66c0.112,0,0.222,0.004,0.334,0.004
		c63.421,0,114.834-51.413,114.834-114.834C370.834,192.581,319.421,141.168,256,141.167z"/>
	<rect x="255.67" y="58.17" style="fill:#FFC000;" width="10.333" height="59"/>
	<rect x="255.67" y="394.83" style="fill:#FFC000;" width="10.333" height="59"/>
	<rect x="394.83" y="246" style="fill:#FFC000;" width="59" height="20"/>
</g>
<rect x="58.17" y="246" style="fill:#FFDC00;" width="59" height="20"/>
<rect x="365.022" y="107.465" transform="matrix(-0.7071 -0.7071 0.7071 -0.7071 543.3539 498.9949)" style="fill:#FFC000;" width="20" height="58.999"/>
<g>
	
		<rect x="126.968" y="345.523" transform="matrix(-0.7071 -0.7071 0.7071 -0.7071 -31.3628 737.0555)" style="fill:#FFDC00;" width="20" height="58.999"/>
	
		<rect x="107.47" y="126.968" transform="matrix(-0.7071 -0.7071 0.7071 -0.7071 136.9714 330.6714)" style="fill:#FFDC00;" width="58.999" height="20"/>
</g>
<rect x="345.53" y="365.027" transform="matrix(-0.7071 -0.7071 0.7071 -0.7071 375.0318 905.3981)" style="fill:#FFC000;" width="58.999" height="20"/>
<g>
</g>
<g>
</g>
<g>
</g>
<g>
</g>
<g>
</g>
<g>
</g>
<g>
</g>
<g>
</g>
<g>
</g>
<g>
</g>
<g>
</g>
<g>
</g>
<g>
</g>
<g>
</g>
<g>
</g>
</svg>
